inDegrees=yes
name=ik_lifting_orientations
DataType=double
version=3
OpenSimVersion=4.5-2024-01-10-34fd6af
endheader
time	pelvis_tilt	pelvis_list	pelvis_rotation	pelvis_tx	pelvis_ty	pelvis_tz	hip_flexion_r	hip_adduction_r	hip_rotation_r	knee_angle_r	knee_angle_r_beta	ankle_angle_r	subtalar_angle_r	mtp_angle_r	hip_flexion_l	hip_adduction_l	hip_rotation_l	knee_angle_l	knee_angle_l_beta	ankle_angle_l	subtalar_angle_l	mtp_angle_l	lumbar_extension	lumbar_bending	lumbar_rotation	arm_flex_r	arm_add_r	arm_rot_r	elbow_flex_r	pro_sup_r	wrist_flex_r	wrist_dev_r	arm_flex_l	arm_add_l	arm_rot_l	elbow_flex_l	pro_sup_l	wrist_flex_l	wrist_dev_l
1.97	31.00181640829362	6.764109862769776	-138.8653794222632	0	0.9399999998679526	0	44.99661106380201	-10.0586904272846	0	59.99832538846847	1.047168323711681	-5.011969817343429	0	0	44.99661106380201	-10.0586904272846	0	59.99832538846847	1.047168323711681	-5.011969817343429	0	0	-59.6040332345791	-40.68041117696263	-8.280022822440761	88.83859121506551	-3.492037899396115	36.66977922083885	4.795925885325408	1.216943591732877	0	0	0	-12.28284517606642	0	88.80706198992094	1.216943591732877	0	0
1.98	30.36313021563351	6.486518695646277	-139.0028258648015	0	0.9399999998679526	0	44.99663553263616	-10.05765534196528	0	59.99833830589192	1.047168549163251	-5.01171586955387	0	0	44.99663553263616	-10.05765534196528	0	59.99833830589192	1.047168549163251	-5.01171586955387	0	0	-58.48007631395303	-40.81175369787918	-7.112923219916489	87.72114072561553	-3.574297837601883	36.49387054034894	5.437077074871448	1.210235009272484	0	0	0	-12.29471133454841	0	88.81363725059458	1.210235009272484	0	0
1.99	29.74394670712051	6.16681923973006	-139.1486725870169	0	0.9399999998679526	0	44.99663762983585	-10.05752948726567	0	59.99833918562524	1.047168564517494	-5.011682499028326	0	0	44.99663762983585	-10.05752948726567	0	59.99833918562524	1.047168564517494	-5.011682499028326	0	0	-57.42370428051681	-40.94837132588398	-5.982194612172154	86.89777115217055	-3.232837272172759	36.5261905551973	5.502299492714216	1.209710489182041	0	0	0	-12.29557379134795	0	88.81415134544551	1.209710489182041	0	0
2	29.09835288572689	5.830798896347776	-139.1868519548832	0	0.9399999998679526	0	44.99665650931028	-10.05673272726752	0	59.99834911475695	1.047168737813534	-5.011487297400351	0	0	44.99665650931028	-10.05673272726752	0	59.99834911475695	1.047168737813534	-5.011487297400351	0	0	-56.43676432887004	-40.94138401701554	-4.942625192176965	85.93293485594194	-3.146801136643108	35.99388298055345	5.834681652212789	1.20453426623849	0	0	0	-12.30472864112953	0	88.81922469966078	1.20453426623849	0	0
2.01	28.38970233241074	5.475770244690501	-139.3952868816388	0	0.9399999998679526	0	44.99667698393677	-10.05587293358412	0	59.99835986685866	1.04716892547311	-5.011277071363478	0	0	44.99667698393677	-10.05587293358412	0	59.99835986685866	1.04716892547311	-5.011277071363478	0	0	-55.19886479440657	-41.11494632385742	-3.587860265292821	84.80458945879323	-3.084827690725275	35.56581446720234	6.088550196710732	1.198917079874401	0	0	0	-12.31466722683678	0	88.82473025397746	1.198917079874401	0	0
2.02	27.53847578282307	5.140422832683832	-139.5103659145088	0	0.9399999998679526	0	44.99670396950394	-10.05477656825783	0	59.99837419176255	1.047169175489848	-5.011011685392934	0	0	44.99670396950394	-10.05477656825783	0	59.99837419176255	1.047169175489848	-5.011011685392934	0	0	-53.75541855019028	-41.07234909990952	-1.77889223599596	83.25932828830175	-3.769685685801817	35.48353605325232	6.799025212285811	1.191467009020097	0	0	0	-12.32790762958158	0	88.83203226845166	1.191467009020097	0	0
2.03	26.82655172572001	4.905723956745985	-139.3863643896634	0	0.9399999998679526	0	44.99672840873558	-10.05378622630881	0	59.99838711083793	1.04716940097025	-5.010772308920808	0	0	44.99672840873558	-10.05378622630881	0	59.99838711083793	1.04716940097025	-5.010772308920808	0	0	-52.37097448118227	-40.77061063705768	-0.1794738648003385	81.90869650869344	-4.3030866118796	35.15498237688891	7.470426959267928	1.184719490507534	0	0	0	-12.33989870721462	0	88.83864569250635	1.184719490507534	0	0
2.04	25.90728602521353	4.617758662517212	-139.3004561495607	0	0.9399999998679526	0	44.99673134043609	-10.05361784074744	0	59.99838834202429	1.047169422458506	-5.010728341571292	0	0	44.99673134043609	-10.05361784074744	0	59.99838834202429	1.047169422458506	-5.010728341571292	0	0	-52.18591079215231	-40.49070869177552	0.7265931683594008	81.43941490064077	-4.776453027299055	34.60632630267369	8.502604366691726	1.183981100191886	0	0	0	-12.3411184763713	0	88.83936940697509	1.183981100191886	0	0
2.05	24.98302531962113	4.469831036992064	-138.8314555649651	0	0.9399999998679526	0	44.99675881880446	-10.05252741171641	0	59.99840292166369	1.047169676921217	-5.010466608581155	0	0	44.99675881880446	-10.05252741171641	0	59.99840292166369	1.047169676921217	-5.010466608581155	0	0	-50.0069176882464	-39.76929836985477	2.783411377620717	79.32545179411491	-5.514101216373801	34.54876083529263	9.294366895634738	1.17636716164906	0	0	0	-12.35468270280789	0	88.84683203319184	1.17636716164906	0	0
2.06	24.04594292410088	4.317623341317804	-138.3515155058612	0	0.9399999998679526	0	44.99676105022292	-10.05240080072233	0	59.99840385861535	1.047169693274108	-5.010433691049872	0	0	44.99676105022292	-10.05240080072233	0	59.99840385861535	1.047169693274108	-5.010433691049872	0	0	-49.25201400822205	-39.08190782566009	3.8955575455255	78.43136118437282	-5.867445878693078	34.70196991009202	9.697997815903605	1.175804022752348	0	0	0	-12.35561423617741	0	88.84738397949569	1.175804022752348	0	0
2.07	23.01012175246145	4.029709926270556	-138.0411907169629	0	0.9399999998679526	0	44.99676319806549	-10.05227911997052	0	59.99840476054239	1.047169709015705	-5.010402076818305	0	0	44.99676319806549	-10.05227911997052	0	59.99840476054239	1.047169709015705	-5.010402076818305	0	0	-48.61104672694681	-38.51885691927816	5.086645580083991	77.66909409746505	-6.210632250681043	34.79416590242134	10.00683602146177	1.175261881662966	0	0	0	-12.35651112415644	0	88.84791534533487	1.175261881662966	0	0
2.08	21.97096796002374	3.811517972111591	-137.4950469737528	0	0.9399999998679526	0	44.99678516409615	-10.05141596346562	0	59.99841639100499	1.047169912005571	-5.010195708508048	0	0	44.99678516409615	-10.05141596346562	0	59.99841639100499	1.047169912005571	-5.010195708508048	0	0	-47.5805492667107	-37.62096258730067	6.267237317691317	76.45108098535849	-6.756389886063823	34.57013707902959	10.63750078087411	1.169167529969401	0	0	0	-12.36737664662967	0	88.85388858371604	1.169167529969401	0	0
